<?xml version="1.0" encoding="UTF-8" standalone="no"?>
<svg
   width="214.98801pt"
   viewBox="0 0 214.98801 26.648998"
   height="26.648998pt"
   version="1.1"
   id="svg71"
   sodipodi:docname="logo.svg"
   xmlns:inkscape="http://www.inkscape.org/namespaces/inkscape"
   xmlns:sodipodi="http://sodipodi.sourceforge.net/DTD/sodipodi-0.dtd"
   xmlns="http://www.w3.org/2000/svg"
   xmlns:svg="http://www.w3.org/2000/svg">
  <sodipodi:namedview
     id="namedview71"
     pagecolor="#ffffff"
     bordercolor="#000000"
     borderopacity="0.25"
     inkscape:showpageshadow="2"
     inkscape:pageopacity="0.0"
     inkscape:pagecheckerboard="0"
     inkscape:deskcolor="#d1d1d1"
     inkscape:document-units="pt"
     inkscape:clip-to-page="true">
    <inkscape:page
       x="-4.1936862e-14"
       y="0"
       width="214.98799"
       height="26.648998"
       id="page2"
       margin="0"
       bleed="0" />
  </sodipodi:namedview>
  <defs
     id="defs1">
    <clipPath
       id="Clip0">
      <path
         d="M 0,0 H 214.988 V 26.649 H 0 Z"
         id="path1" />
    </clipPath>
  </defs>
  <g
     inkscape:label="Фон"
     inkscape:groupmode="layer"
     id="Фон"
     transform="translate(-18.560099,-18.649201)">
    <g
       style="fill:none;stroke:none"
       clip-path="url(#Clip0)"
       id="Група2"
       transform="translate(18.5601,18.6492)"
       clip-rule="evenodd"
       inkscape:export-filename="../8b4f6abd/logo1.svg"
       inkscape:export-xdpi="96"
       inkscape:export-ydpi="96">
      <path
         style="fill:#ffffff;fill-rule:nonzero;stroke:none"
         d="M 21.311,19.393 17.74,18.517 c 0.486,-0.414 0.914,-0.894 1.268,-1.427 z m -1.914,6.704 H 7.252 l 3.345,-6.542 c 0.841,0.372 1.769,0.581 2.745,0.581 0.965,0 1.884,-0.204 2.716,-0.568 z M 5.338,19.393 7.662,17.069 c 0.356,0.539 0.785,1.024 1.275,1.441 z M 0.552,19.397 V 7.252 l 6.563,3.356 c -0.368,0.836 -0.573,1.758 -0.573,2.727 0,0.963 0.202,1.879 0.565,2.71 z M 5.338,7.256 8.957,8.144 C 8.463,8.562 8.029,9.048 7.671,9.589 Z M 7.252,0.552 h 12.145 l -3.348,6.547 c -0.83,-0.362 -1.745,-0.564 -2.707,-0.564 -0.973,0 -1.898,0.207 -2.735,0.577 z M 21.311,7.256 19,9.567 C 18.642,9.032 18.211,8.551 17.72,8.137 Z m -6.377,1.193 c 2.122,0.691 3.547,2.654 3.547,4.886 0,2.391 -1.622,4.446 -3.945,4.998 l -0.076,0.019 -1.118,1.117 -1.117,-1.117 -0.076,-0.019 C 9.826,17.781 8.203,15.726 8.203,13.335 8.203,11.103 9.629,9.14 11.751,8.449 L 11.921,8.082 11.58,7.924 c -2.35,0.765 -3.929,2.939 -3.929,5.411 0,2.621 1.761,4.878 4.293,5.517 l 0.69,0.69 c -3.113,-0.353 -5.54,-3.001 -5.54,-6.207 0,-3.445 2.803,-6.248 6.248,-6.248 3.445,0 6.248,2.803 6.248,6.248 0,3.206 -2.427,5.854 -5.54,6.207 l 0.69,-0.69 c 2.532,-0.639 4.293,-2.896 4.293,-5.517 0,-2.472 -1.578,-4.646 -3.928,-5.411 L 14.762,8.086 Z M 26.097,7.252 V 19.397 L 19.571,16.06 c 0.367,-0.835 0.572,-1.756 0.572,-2.725 0,-0.975 -0.208,-1.902 -0.58,-2.742 z M 26.649,20.3 V 6.349 l -7.328,3.748 C 19.313,10.082 19.304,10.068 19.295,10.053 L 23.1,6.248 18.354,7.413 23.196,2.571 22.471,5.525 23.008,5.656 24.076,1.3 19.72,2.368 19.851,2.905 22.805,2.18 17.227,7.759 C 17.009,7.606 16.782,7.466 16.546,7.339 L 20.3,0 H 6.349 L 10.11,7.354 C 9.877,7.48 9.653,7.621 9.437,7.773 L 3.844,2.18 6.798,2.905 6.929,2.368 2.573,1.3 3.641,5.656 4.178,5.525 3.453,2.571 8.295,7.413 3.549,6.248 7.376,10.075 c -0.007,0.012 -0.013,0.024 -0.02,0.036 L 0,6.349 V 20.3 l 7.347,-3.758 c 0.007,0.013 0.014,0.027 0.021,0.04 l -3.819,3.819 4.746,-1.165 -4.842,4.842 0.725,-2.953 -0.537,-0.132 -1.068,4.356 4.356,-1.068 -0.131,-0.537 -2.954,0.725 5.58,-5.58 c 0.217,0.153 0.442,0.296 0.677,0.424 L 6.349,26.649 H 20.3 l -3.745,-7.322 c 0.237,-0.128 0.465,-0.27 0.685,-0.424 l 5.565,5.566 -2.954,-0.725 -0.131,0.537 4.356,1.068 -1.068,-4.356 -0.537,0.132 0.725,2.953 -4.842,-4.842 4.746,1.165 -3.797,-3.797 c 0.009,-0.016 0.018,-0.031 0.027,-0.047 z"
         id="path2" />
      <path
         style="fill:#ffffff;fill-rule:nonzero;stroke:none"
         d="M 5.366,5.366 V 1.755 C 5.063,2.118 4.821,2.582 4.781,3.087 L 4.579,4.721 c 0.242,0.141 0.444,0.363 0.525,0.645 z m 0,1.936 V 5.85 H 5.104 C 5.003,6.173 4.741,6.435 4.418,6.556 L 4.176,6.596 C 4.236,6.839 4.277,7.06 4.277,7.302 Z M 3.732,7.807 H 3.187 V 8.836 C 3.45,8.533 3.631,8.19 3.732,7.807 Z M 3.793,7.302 C 3.793,7.101 3.752,6.899 3.712,6.718 3.409,6.738 3.187,7 3.187,7.302 Z M 3.47,6.274 C 3.248,5.89 3.066,5.487 2.925,5.063 2.804,5.487 2.623,5.89 2.401,6.274 2.623,6.314 2.804,6.455 2.925,6.617 3.066,6.455 3.248,6.314 3.47,6.274 Z M 2.683,7.807 H 2.139 c 0.1,0.383 0.282,0.726 0.544,1.029 z m 0,-0.505 C 2.683,7 2.461,6.738 2.159,6.718 2.118,6.899 2.078,7.101 2.078,7.302 Z m -1.089,0 c 0,-0.242 0.04,-0.463 0.101,-0.706 L 1.453,6.556 C 1.13,6.435 0.868,6.173 0.767,5.85 H 0.484 V 7.302 Z M 0.767,5.366 C 0.848,5.084 1.029,4.862 1.291,4.721 L 1.09,3.087 C 1.029,2.582 0.807,2.118 0.484,1.755 V 5.366 Z M 2.643,9.421 C 2.118,9.037 1.755,8.472 1.634,7.807 H 0 v -7.06 c 0.888,0.423 1.513,1.392 1.574,2.4 L 1.836,5.124 1.715,5.104 c -0.283,0 -0.504,0.262 -0.504,0.504 0,0.222 0.181,0.424 0.403,0.464 L 1.917,6.153 C 2.401,5.225 2.683,4.297 2.683,3.409 2.683,2.602 2.582,1.796 2.562,0.969 2.562,0.605 2.703,0.263 2.925,0 c 0.242,0.263 0.383,0.605 0.383,0.969 0,0.827 -0.121,1.633 -0.121,2.44 0,0.888 0.283,1.816 0.767,2.744 L 4.257,6.072 C 4.478,6.032 4.66,5.83 4.66,5.608 4.66,5.366 4.418,5.104 4.156,5.104 L 4.035,5.124 4.277,3.147 C 4.418,2.139 4.983,1.17 5.87,0.747 v 7.06 H 4.236 C 4.115,8.472 3.752,9.057 3.228,9.421 3.107,9.521 3.006,9.622 2.925,9.763 2.865,9.622 2.764,9.521 2.643,9.421 Z"
         transform="translate(10.4069,8.8426)"
         id="path3" />
      <path
         style="fill:#ffffff;fill-rule:nonzero;stroke:none"
         d="M 0,5.068 0.65,4.191 C 1.135,4.659 1.785,4.902 2.466,4.902 3.161,4.902 3.585,4.659 3.585,4.236 3.585,3.843 3.192,3.722 2.39,3.495 1.376,3.207 0.227,2.859 0.227,1.68 0.227,0.636 1.104,0 2.481,0 3.298,0 3.993,0.227 4.629,0.681 L 3.993,1.558 C 3.57,1.211 3.01,1.014 2.42,1.014 c -0.635,0 -1.044,0.242 -1.044,0.605 0,0.378 0.424,0.56 1.271,0.787 1.089,0.287 2.118,0.65 2.118,1.739 C 4.765,5.25 3.887,5.9 2.42,5.9 1.467,5.9 0.605,5.612 0,5.068"
         transform="translate(39.1646,5.9737)"
         id="path4" />
      <path
         style="fill:#ffffff;fill-rule:nonzero;stroke:none"
         d="m 1.997,2.118 v 2.148 c 0,0.424 0.212,0.56 0.605,0.56 0.257,0 0.469,-0.015 0.726,-0.076 V 5.718 C 3.01,5.809 2.678,5.839 2.36,5.839 1.437,5.839 0.908,5.386 0.908,4.508 V 2.118 H 0 V 1.21 H 0.908 L 1.029,0 h 0.968 v 1.21 h 1.331 v 0.908 z"
         transform="translate(44.3673,6.0494)"
         id="path5" />
      <path
         style="fill:#ffffff;fill-rule:nonzero;stroke:none"
         d="M 2.889,2.859 V 2.39 C 2.707,2.496 2.45,2.541 2.072,2.602 1.558,2.693 1.059,2.768 1.059,3.267 c 0,0.348 0.242,0.56 0.65,0.56 0.651,0 1.18,-0.438 1.18,-0.968 z M 4.387,3.676 V 4.614 C 4.311,4.629 4.19,4.644 3.993,4.644 3.434,4.644 3.146,4.432 3.071,3.948 2.738,4.402 2.148,4.689 1.482,4.689 0.605,4.689 0,4.16 0,3.358 0,2.209 1.089,1.982 1.951,1.876 2.541,1.8 2.919,1.724 2.919,1.422 c 0,-0.318 -0.333,-0.53 -0.877,-0.53 -0.484,0 -0.938,0.197 -1.286,0.56 L 0.106,0.771 C 0.635,0.272 1.301,0 2.102,0 3.252,0 3.933,0.575 3.933,1.513 v 1.891 c 0,0.181 0.091,0.272 0.272,0.272 z"
         transform="translate(48.2396,7.1843)"
         id="path6" />
      <path
         style="fill:#ffffff;fill-rule:nonzero;stroke:none"
         d="m 1.997,2.118 v 2.148 c 0,0.424 0.212,0.56 0.605,0.56 0.257,0 0.469,-0.015 0.726,-0.076 V 5.718 C 3.01,5.809 2.678,5.839 2.36,5.839 1.437,5.839 0.908,5.386 0.908,4.508 V 2.118 H 0 V 1.21 H 0.908 L 1.029,0 h 0.968 v 1.21 h 1.331 v 0.908 z"
         transform="translate(52.9883,6.0494)"
         id="path7" />
      <path
         style="fill:#ffffff;fill-rule:nonzero;stroke:none"
         d="M 1.104,1.891 H 3.403 C 3.282,1.241 2.874,0.877 2.284,0.877 1.649,0.877 1.225,1.256 1.104,1.891 M 2.36,3.782 c 0.59,0 1.013,-0.227 1.285,-0.545 L 4.326,3.888 C 3.903,4.357 3.267,4.69 2.36,4.69 0.801,4.69 0,3.691 0,2.345 0,0.953 0.907,0 2.284,0 3.63,0 4.508,0.923 4.508,2.345 c 0,0.106 0,0.181 -0.031,0.348 H 1.089 c 0.106,0.68 0.56,1.089 1.271,1.089"
         transform="translate(56.8001,7.1841)"
         id="path8" />
      <path
         style="fill:#ffffff;fill-rule:nonzero;stroke:none"
         d="M 0,5.068 0.65,4.191 C 1.135,4.659 1.785,4.902 2.466,4.902 3.161,4.902 3.585,4.659 3.585,4.236 3.585,3.843 3.192,3.722 2.39,3.495 1.376,3.207 0.227,2.859 0.227,1.68 0.227,0.636 1.104,0 2.481,0 3.298,0 3.993,0.227 4.629,0.681 L 3.993,1.558 C 3.57,1.211 3.01,1.014 2.42,1.014 c -0.635,0 -1.044,0.242 -1.044,0.605 0,0.378 0.424,0.56 1.271,0.787 1.089,0.287 2.118,0.65 2.118,1.739 C 4.765,5.25 3.887,5.9 2.42,5.9 1.467,5.9 0.605,5.612 0,5.068"
         transform="translate(64.2714,5.9737)"
         id="path9" />
      <path
         style="fill:#ffffff;fill-rule:nonzero;stroke:none"
         d="M 1.104,1.891 H 3.403 C 3.282,1.241 2.874,0.877 2.284,0.877 1.649,0.877 1.225,1.256 1.104,1.891 M 2.36,3.782 c 0.59,0 1.013,-0.227 1.285,-0.545 L 4.326,3.888 C 3.903,4.357 3.267,4.69 2.36,4.69 0.801,4.69 0,3.691 0,2.345 0,0.953 0.907,0 2.284,0 3.63,0 4.508,0.923 4.508,2.345 c 0,0.106 0,0.181 -0.031,0.348 H 1.089 c 0.106,0.68 0.56,1.089 1.271,1.089"
         transform="translate(69.6409,7.1841)"
         id="path10" />
      <path
         style="fill:#ffffff;fill-rule:nonzero;stroke:none"
         d="M 2.965,0.03 2.935,1.059 C 2.708,1.028 2.481,1.013 2.269,1.013 c -0.696,0 -1.18,0.379 -1.18,1.089 V 4.598 H 0 V 0.06 H 0.968 L 1.029,0.771 C 1.362,0.287 1.906,0 2.572,0 2.693,0 2.829,0.015 2.965,0.03"
         transform="translate(75.1157,7.1995)"
         id="path11" />
      <path
         style="fill:#ffffff;fill-rule:nonzero;stroke:none"
         d="M 4.826,0 3.071,4.538 H 1.74 L 0,0 H 1.18 L 2.436,3.464 3.661,0 Z"
         transform="translate(78.3517,7.2598)"
         id="path12" />
      <path
         style="fill:#ffffff;fill-rule:nonzero;stroke:none"
         d="M 0.045,1.573 H 1.134 V 6.111 H 0.045 Z M 0,0 H 1.18 V 0.968 H 0 Z"
         transform="translate(83.9639,5.6868)"
         id="path13" />
      <path
         style="fill:#ffffff;fill-rule:nonzero;stroke:none"
         d="M 0,2.345 C 0,0.938 0.938,0 2.314,0 3.328,0 4.13,0.5 4.372,1.362 L 3.343,1.679 C 3.177,1.195 2.814,0.908 2.299,0.908 c -0.726,0 -1.18,0.56 -1.18,1.437 0,0.877 0.454,1.437 1.18,1.437 0.515,0 0.893,-0.287 1.059,-0.771 L 4.372,3.328 C 4.13,4.191 3.328,4.69 2.314,4.69 0.938,4.69 0,3.752 0,2.345"
         transform="translate(86.1717,7.1839)"
         id="path14" />
      <path
         style="fill:#ffffff;fill-rule:nonzero;stroke:none"
         d="M 1.104,1.891 H 3.403 C 3.282,1.241 2.874,0.877 2.284,0.877 1.648,0.877 1.225,1.256 1.104,1.891 M 2.36,3.782 c 0.589,0 1.013,-0.227 1.285,-0.545 L 4.326,3.888 C 3.902,4.357 3.267,4.69 2.36,4.69 0.801,4.69 0,3.691 0,2.345 0,0.953 0.907,0 2.284,0 3.63,0 4.507,0.923 4.507,2.345 c 0,0.106 0,0.181 -0.03,0.348 H 1.089 c 0.105,0.68 0.559,1.089 1.271,1.089"
         transform="translate(91.0121,7.1841)"
         id="path15" />
      <path
         style="fill:#ffffff;fill-rule:nonzero;stroke:none"
         d="m 3.57,2.345 c 0,-0.892 -0.469,-1.437 -1.225,-1.437 -0.757,0 -1.226,0.545 -1.226,1.437 0,0.893 0.469,1.437 1.226,1.437 0.756,0 1.225,-0.544 1.225,-1.437 M 0,2.345 C 0,0.938 0.953,0 2.345,0 3.766,0 4.689,0.923 4.689,2.345 4.689,3.752 3.736,4.69 2.345,4.69 0.923,4.69 0,3.767 0,2.345"
         transform="translate(98.5887,7.1839)"
         id="path16" />
      <path
         style="fill:#ffffff;fill-rule:nonzero;stroke:none"
         d="M 2.012,1.407 V 1.649 H 3.283 V 2.556 H 2.012 V 6.187 H 0.923 V 2.556 H 0 V 1.649 H 0.923 V 1.422 C 0.923,0.56 1.528,0 2.466,0 2.995,0 3.434,0.136 3.812,0.393 L 3.313,1.195 C 3.056,1.014 2.784,0.908 2.481,0.908 2.179,0.908 2.012,1.089 2.012,1.407"
         transform="translate(103.655,5.6109)"
         id="path17" />
      <path
         style="fill:#ffffff;fill-rule:nonzero;stroke:none"
         d="M 0,5.068 0.65,4.191 C 1.135,4.659 1.785,4.902 2.466,4.902 3.162,4.902 3.585,4.659 3.585,4.236 3.585,3.843 3.192,3.722 2.39,3.495 1.377,3.207 0.227,2.859 0.227,1.68 0.227,0.636 1.104,0 2.481,0 3.298,0 3.994,0.227 4.629,0.681 L 3.994,1.558 C 3.57,1.211 3.01,1.014 2.421,1.014 c -0.636,0 -1.044,0.242 -1.044,0.605 0,0.378 0.423,0.56 1.27,0.787 1.09,0.287 2.118,0.65 2.118,1.739 C 4.765,5.25 3.888,5.9 2.421,5.9 1.468,5.9 0.605,5.612 0,5.068"
         transform="translate(109.766,5.9737)"
         id="path18" />
      <path
         style="fill:#ffffff;fill-rule:nonzero;stroke:none"
         d="m 3.388,2.345 c 0,-0.877 -0.454,-1.437 -1.18,-1.437 -0.726,0 -1.164,0.56 -1.164,1.437 0,0.877 0.438,1.437 1.164,1.437 0.726,0 1.18,-0.56 1.18,-1.437 m 1.104,0 C 4.492,3.752 3.691,4.69 2.541,4.69 1.936,4.69 1.437,4.463 1.089,4.039 V 6.127 H 0 V 0.076 h 0.968 l 0.06,0.681 C 1.376,0.273 1.906,0 2.541,0 3.721,0 4.492,0.923 4.492,2.345"
         transform="translate(115.453,7.1839)"
         id="path19" />
      <path
         style="fill:#ffffff;fill-rule:nonzero;stroke:none"
         d="M 1.104,1.891 H 3.403 C 3.282,1.241 2.874,0.877 2.284,0.877 c -0.636,0 -1.059,0.379 -1.18,1.014 m 1.255,1.891 c 0.59,0 1.014,-0.227 1.286,-0.545 L 4.326,3.888 C 3.902,4.357 3.267,4.69 2.359,4.69 0.801,4.69 0,3.691 0,2.345 0,0.953 0.907,0 2.284,0 3.63,0 4.507,0.923 4.507,2.345 c 0,0.106 0,0.181 -0.03,0.348 H 1.089 c 0.105,0.68 0.559,1.089 1.27,1.089"
         transform="translate(120.611,7.1841)"
         id="path20" />
      <path
         style="fill:#ffffff;fill-rule:nonzero;stroke:none"
         d="M 0,2.345 C 0,0.938 0.938,0 2.315,0 3.328,0 4.13,0.5 4.372,1.362 L 3.343,1.679 C 3.177,1.195 2.814,0.908 2.299,0.908 c -0.726,0 -1.179,0.56 -1.179,1.437 0,0.877 0.453,1.437 1.179,1.437 0.515,0 0.893,-0.287 1.059,-0.771 L 4.372,3.328 C 4.13,4.191 3.328,4.69 2.315,4.69 0.938,4.69 0,3.752 0,2.345"
         transform="translate(125.768,7.1839)"
         id="path21" />
      <path
         style="fill:#ffffff;fill-rule:nonzero;stroke:none"
         d="M 0.046,1.573 H 1.135 V 6.111 H 0.046 Z M 0,0 H 1.18 V 0.968 H 0 Z"
         transform="translate(131.031,5.6868)"
         id="path22" />
      <path
         style="fill:#ffffff;fill-rule:nonzero;stroke:none"
         d="M 2.889,2.859 V 2.39 C 2.708,2.496 2.451,2.541 2.072,2.602 1.558,2.693 1.059,2.768 1.059,3.267 c 0,0.348 0.242,0.56 0.65,0.56 0.651,0 1.18,-0.438 1.18,-0.968 z M 4.387,3.676 V 4.614 C 4.311,4.629 4.19,4.644 3.993,4.644 3.433,4.644 3.146,4.432 3.071,3.948 2.738,4.402 2.148,4.689 1.482,4.689 0.605,4.689 0,4.16 0,3.358 0,2.209 1.089,1.982 1.951,1.876 2.541,1.8 2.919,1.724 2.919,1.422 c 0,-0.318 -0.333,-0.53 -0.877,-0.53 -0.484,0 -0.938,0.197 -1.286,0.56 L 0.106,0.771 C 0.635,0.272 1.301,0 2.103,0 c 1.149,0 1.83,0.575 1.83,1.513 v 1.891 c 0,0.181 0.091,0.272 0.272,0.272 z"
         transform="translate(133.194,7.1843)"
         id="path23" />
      <path
         style="fill:#ffffff;fill-rule:nonzero;stroke:none"
         d="M 0,0 H 1.089 V 6.051 H 0 Z"
         transform="translate(138.518,5.7468)"
         id="path24" />
      <path
         style="fill:#ffffff;fill-rule:nonzero;stroke:none"
         d="M 0,2.95 C 0,1.195 1.119,0 2.768,0 3.993,0 4.886,0.605 5.219,1.679 L 4.13,2.057 C 3.918,1.362 3.434,0.983 2.753,0.983 1.8,0.983 1.18,1.74 1.18,2.95 c 0,1.21 0.605,1.967 1.573,1.967 0.681,0 1.165,-0.379 1.377,-1.075 L 5.219,4.221 C 4.901,5.264 3.993,5.9 2.768,5.9 1.104,5.9 0,4.735 0,2.95"
         transform="translate(143.085,5.9739)"
         id="path25" />
      <path
         style="fill:#ffffff;fill-rule:nonzero;stroke:none"
         d="m 3.57,2.345 c 0,-0.892 -0.469,-1.437 -1.225,-1.437 -0.757,0 -1.226,0.545 -1.226,1.437 0,0.893 0.469,1.437 1.226,1.437 0.756,0 1.225,-0.544 1.225,-1.437 M 0,2.345 C 0,0.938 0.953,0 2.345,0 3.766,0 4.689,0.923 4.689,2.345 4.689,3.752 3.736,4.69 2.345,4.69 0.923,4.69 0,3.767 0,2.345"
         transform="translate(148.833,7.1839)"
         id="path26" />
      <path
         style="fill:#ffffff;fill-rule:nonzero;stroke:none"
         d="M 7.11,1.74 V 4.614 H 6.021 V 1.997 C 6.021,1.301 5.733,0.908 5.189,0.908 4.554,0.908 4.1,1.362 4.1,2.012 V 4.614 H 3.011 V 1.997 C 3.011,1.301 2.723,0.908 2.178,0.908 1.543,0.908 1.09,1.362 1.09,2.012 V 4.614 H 0 V 0.076 H 0.968 L 1.029,0.711 C 1.347,0.273 1.876,0 2.526,0 3.177,0 3.676,0.318 3.918,0.863 4.236,0.333 4.811,0 5.522,0 6.475,0 7.11,0.696 7.11,1.74"
         transform="translate(154.504,7.1839)"
         id="path27" />
      <path
         style="fill:#ffffff;fill-rule:nonzero;stroke:none"
         d="M 7.11,1.74 V 4.614 H 6.021 V 1.997 C 6.021,1.301 5.733,0.908 5.189,0.908 4.554,0.908 4.1,1.362 4.1,2.012 V 4.614 H 3.011 V 1.997 C 3.011,1.301 2.723,0.908 2.178,0.908 1.543,0.908 1.09,1.362 1.09,2.012 V 4.614 H 0 V 0.076 H 0.968 L 1.029,0.711 C 1.347,0.273 1.876,0 2.526,0 3.177,0 3.676,0.318 3.918,0.863 4.236,0.333 4.811,0 5.522,0 6.475,0 7.11,0.696 7.11,1.74"
         transform="translate(162.853,7.1839)"
         id="path28" />
      <path
         style="fill:#ffffff;fill-rule:nonzero;stroke:none"
         d="M 4.221,0 V 4.538 H 3.253 L 3.192,3.873 C 2.859,4.326 2.3,4.614 1.649,4.614 0.681,4.614 0,3.918 0,2.874 V 0 h 1.09 v 2.617 c 0,0.696 0.333,1.089 0.892,1.089 0.636,0 1.15,-0.454 1.15,-1.104 V 0 Z"
         transform="translate(171.126,7.2598)"
         id="path29" />
      <path
         style="fill:#ffffff;fill-rule:nonzero;stroke:none"
         d="M 4.221,1.74 V 4.614 H 3.132 V 1.997 C 3.132,1.301 2.799,0.908 2.239,0.908 1.604,0.908 1.09,1.362 1.09,2.012 V 4.614 H 0 V 0.076 h 0.969 l 0.06,0.666 C 1.362,0.288 1.922,0 2.572,0 3.54,0 4.221,0.696 4.221,1.74"
         transform="translate(176.646,7.1839)"
         id="path30" />
      <path
         style="fill:#ffffff;fill-rule:nonzero;stroke:none"
         d="M 0.045,1.573 H 1.134 V 6.111 H 0.045 Z M 0,0 H 1.18 V 0.968 H 0 Z"
         transform="translate(182.122,5.6868)"
         id="path31" />
      <path
         style="fill:#ffffff;fill-rule:nonzero;stroke:none"
         d="M 0,2.345 C 0,0.938 0.938,0 2.315,0 3.328,0 4.13,0.5 4.372,1.362 L 3.343,1.679 C 3.177,1.195 2.814,0.908 2.299,0.908 c -0.726,0 -1.18,0.56 -1.18,1.437 0,0.877 0.454,1.437 1.18,1.437 0.515,0 0.893,-0.287 1.059,-0.771 L 4.372,3.328 C 4.13,4.191 3.328,4.69 2.315,4.69 0.938,4.69 0,3.752 0,2.345"
         transform="translate(184.33,7.1839)"
         id="path32" />
      <path
         style="fill:#ffffff;fill-rule:nonzero;stroke:none"
         d="M 2.889,2.859 V 2.39 C 2.708,2.496 2.451,2.541 2.072,2.602 1.558,2.693 1.059,2.768 1.059,3.267 c 0,0.348 0.242,0.56 0.65,0.56 0.651,0 1.18,-0.438 1.18,-0.968 z M 4.387,3.676 V 4.614 C 4.311,4.629 4.19,4.644 3.993,4.644 3.433,4.644 3.146,4.432 3.071,3.948 2.738,4.402 2.148,4.689 1.482,4.689 0.605,4.689 0,4.16 0,3.358 0,2.209 1.089,1.982 1.951,1.876 2.541,1.8 2.919,1.724 2.919,1.422 c 0,-0.318 -0.333,-0.53 -0.877,-0.53 -0.484,0 -0.938,0.197 -1.286,0.56 L 0.106,0.771 C 0.635,0.272 1.301,0 2.103,0 c 1.149,0 1.83,0.575 1.83,1.513 v 1.891 c 0,0.181 0.091,0.272 0.272,0.272 z"
         transform="translate(189.125,7.1843)"
         id="path33" />
      <path
         style="fill:#ffffff;fill-rule:nonzero;stroke:none"
         d="m 1.997,2.118 v 2.148 c 0,0.424 0.212,0.56 0.605,0.56 0.258,0 0.469,-0.015 0.726,-0.076 V 5.718 C 3.011,5.809 2.678,5.839 2.36,5.839 1.437,5.839 0.908,5.386 0.908,4.508 V 2.118 H 0 V 1.21 H 0.908 L 1.029,0 h 0.968 v 1.21 h 1.331 v 0.908 z"
         transform="translate(193.873,6.0494)"
         id="path34" />
      <path
         style="fill:#ffffff;fill-rule:nonzero;stroke:none"
         d="M 0.046,1.573 H 1.135 V 6.111 H 0.046 Z M 0,0 H 1.18 V 0.968 H 0 Z"
         transform="translate(198.214,5.6868)"
         id="path35" />
      <path
         style="fill:#ffffff;fill-rule:nonzero;stroke:none"
         d="M 3.57,2.345 C 3.57,1.453 3.101,0.908 2.345,0.908 1.588,0.908 1.12,1.453 1.12,2.345 c 0,0.893 0.468,1.437 1.225,1.437 0.756,0 1.225,-0.544 1.225,-1.437 M 0,2.345 C 0,0.938 0.953,0 2.345,0 3.766,0 4.689,0.923 4.689,2.345 4.689,3.752 3.736,4.69 2.345,4.69 0.923,4.69 0,3.767 0,2.345"
         transform="translate(200.423,7.1839)"
         id="path36" />
      <path
         style="fill:#ffffff;fill-rule:nonzero;stroke:none"
         d="M 4.221,1.74 V 4.614 H 3.132 V 1.997 C 3.132,1.301 2.799,0.908 2.239,0.908 1.604,0.908 1.09,1.362 1.09,2.012 V 4.614 H 0 V 0.076 h 0.969 l 0.06,0.666 C 1.362,0.288 1.922,0 2.572,0 3.54,0 4.221,0.696 4.221,1.74"
         transform="translate(206.094,7.1839)"
         id="path37" />
      <path
         style="fill:#ffffff;fill-rule:nonzero;stroke:none"
         d="M 0,3.993 0.575,3.222 C 0.938,3.554 1.437,3.766 2.057,3.766 2.527,3.766 2.89,3.63 2.89,3.343 2.89,3.116 2.693,2.979 1.891,2.798 0.711,2.511 0.212,2.087 0.212,1.376 0.212,0.544 0.938,0 2.073,0 2.738,0 3.313,0.196 3.858,0.559 L 3.268,1.361 C 2.89,1.058 2.496,0.907 1.982,0.907 c -0.439,0 -0.726,0.151 -0.726,0.408 0,0.243 0.196,0.379 0.892,0.545 1.301,0.318 1.785,0.696 1.785,1.437 0,0.878 -0.71,1.392 -1.906,1.392 C 1.211,4.689 0.484,4.432 0,3.993"
         transform="translate(211.055,7.1848)"
         id="path38" />
      <path
         style="fill:#ffffff;fill-rule:nonzero;stroke:none"
         d="M 2.889,2.859 V 2.39 C 2.708,2.496 2.451,2.541 2.072,2.602 1.558,2.693 1.059,2.768 1.059,3.267 c 0,0.348 0.242,0.56 0.65,0.56 0.651,0 1.18,-0.438 1.18,-0.968 z M 4.387,3.676 V 4.614 C 4.311,4.629 4.19,4.644 3.993,4.644 3.433,4.644 3.146,4.432 3.071,3.948 2.738,4.402 2.148,4.689 1.482,4.689 0.605,4.689 0,4.16 0,3.358 0,2.209 1.089,1.982 1.951,1.876 2.541,1.8 2.919,1.724 2.919,1.422 c 0,-0.318 -0.333,-0.53 -0.877,-0.53 -0.484,0 -0.938,0.197 -1.286,0.56 L 0.106,0.771 C 0.635,0.272 1.301,0 2.103,0 c 1.149,0 1.83,0.575 1.83,1.513 v 1.891 c 0,0.181 0.091,0.272 0.272,0.272 z"
         transform="translate(39.1649,16.4768)"
         id="path39" />
      <path
         style="fill:#ffffff;fill-rule:nonzero;stroke:none"
         d="M 4.22,1.74 V 4.614 H 3.131 V 1.997 C 3.131,1.301 2.798,0.908 2.238,0.908 1.603,0.908 1.089,1.362 1.089,2.012 V 4.614 H 0 V 0.076 h 0.968 l 0.06,0.666 C 1.361,0.288 1.921,0 2.571,0 3.539,0 4.22,0.696 4.22,1.74"
         transform="translate(44.4887,16.4764)"
         id="path40" />
      <path
         style="fill:#ffffff;fill-rule:nonzero;stroke:none"
         d="m 3.449,3.782 c 0,-0.877 -0.438,-1.437 -1.165,-1.437 -0.726,0 -1.179,0.56 -1.179,1.437 0,0.877 0.453,1.437 1.179,1.437 0.727,0 1.165,-0.56 1.165,-1.437 z M 4.493,0 V 6.051 H 3.525 L 3.464,5.37 C 3.116,5.854 2.587,6.127 1.952,6.127 0.772,6.127 0,5.204 0,3.782 0,2.375 0.802,1.437 1.952,1.437 c 0.605,0 1.104,0.227 1.452,0.651 V 0 Z"
         transform="translate(49.6151,15.0394)"
         id="path41" />
      <path
         style="fill:#ffffff;fill-rule:nonzero;stroke:none"
         d="M 0,0 H 1.165 V 5.748 H 0 Z"
         transform="translate(57.6089,15.3428)"
         id="path42" />
      <path
         style="fill:#ffffff;fill-rule:nonzero;stroke:none"
         d="M 4.22,1.74 V 4.614 H 3.131 V 1.997 C 3.131,1.301 2.798,0.908 2.238,0.908 1.603,0.908 1.089,1.362 1.089,2.012 V 4.614 H 0 V 0.076 h 0.968 l 0.06,0.666 C 1.361,0.288 1.921,0 2.571,0 3.539,0 4.22,0.696 4.22,1.74"
         transform="translate(60.2264,16.4764)"
         id="path43" />
      <path
         style="fill:#ffffff;fill-rule:nonzero;stroke:none"
         d="M 2.012,1.407 V 1.649 H 3.283 V 2.556 H 2.012 V 6.187 H 0.923 V 2.556 H 0 V 1.649 H 0.923 V 1.422 C 0.923,0.56 1.528,0 2.466,0 2.995,0 3.434,0.136 3.812,0.393 L 3.313,1.195 C 3.056,1.014 2.784,0.908 2.481,0.908 2.178,0.908 2.012,1.089 2.012,1.407"
         transform="translate(65.0654,14.9034)"
         id="path44" />
      <path
         style="fill:#ffffff;fill-rule:nonzero;stroke:none"
         d="m 3.57,2.345 c 0,-0.892 -0.469,-1.437 -1.225,-1.437 -0.757,0 -1.226,0.545 -1.226,1.437 0,0.893 0.469,1.437 1.226,1.437 0.756,0 1.225,-0.544 1.225,-1.437 M 0,2.345 C 0,0.938 0.953,0 2.345,0 3.767,0 4.689,0.923 4.689,2.345 4.689,3.752 3.736,4.69 2.345,4.69 0.923,4.69 0,3.767 0,2.345"
         transform="translate(68.635,16.4764)"
         id="path45" />
      <path
         style="fill:#ffffff;fill-rule:nonzero;stroke:none"
         d="M 2.965,0.03 2.935,1.059 C 2.708,1.028 2.481,1.013 2.269,1.013 c -0.696,0 -1.18,0.379 -1.18,1.089 V 4.598 H 0 V 0.06 H 0.968 L 1.029,0.771 C 1.362,0.287 1.906,0 2.572,0 2.693,0 2.829,0.015 2.965,0.03"
         transform="translate(74.3067,16.4921)"
         id="path46" />
      <path
         style="fill:#ffffff;fill-rule:nonzero;stroke:none"
         d="M 7.11,1.74 V 4.614 H 6.021 V 1.997 C 6.021,1.301 5.733,0.908 5.189,0.908 4.554,0.908 4.1,1.362 4.1,2.012 V 4.614 H 3.01 V 1.997 C 3.01,1.301 2.723,0.908 2.178,0.908 1.543,0.908 1.089,1.362 1.089,2.012 V 4.614 H 0 V 0.076 H 0.968 L 1.029,0.711 C 1.347,0.273 1.876,0 2.526,0 3.177,0 3.676,0.318 3.918,0.863 4.236,0.333 4.811,0 5.522,0 6.475,0 7.11,0.696 7.11,1.74"
         transform="translate(78.0725,16.4764)"
         id="path47" />
      <path
         style="fill:#ffffff;fill-rule:nonzero;stroke:none"
         d="M 2.889,2.859 V 2.39 C 2.707,2.496 2.45,2.541 2.072,2.602 1.558,2.693 1.059,2.768 1.059,3.267 c 0,0.348 0.242,0.56 0.65,0.56 0.651,0 1.18,-0.438 1.18,-0.968 z M 4.387,3.676 V 4.614 C 4.311,4.629 4.19,4.644 3.993,4.644 3.434,4.644 3.146,4.432 3.071,3.948 2.738,4.402 2.148,4.689 1.482,4.689 0.605,4.689 0,4.16 0,3.358 0,2.209 1.089,1.982 1.951,1.876 2.541,1.8 2.919,1.724 2.919,1.422 c 0,-0.318 -0.333,-0.53 -0.877,-0.53 -0.484,0 -0.938,0.197 -1.286,0.56 L 0.106,0.771 C 0.635,0.272 1.301,0 2.102,0 3.252,0 3.933,0.575 3.933,1.513 v 1.891 c 0,0.181 0.091,0.272 0.272,0.272 z"
         transform="translate(86.0587,16.4768)"
         id="path48" />
      <path
         style="fill:#ffffff;fill-rule:nonzero;stroke:none"
         d="m 1.997,2.118 v 2.148 c 0,0.424 0.212,0.56 0.605,0.56 0.257,0 0.469,-0.015 0.726,-0.076 V 5.718 C 3.01,5.809 2.678,5.839 2.36,5.839 1.437,5.839 0.908,5.386 0.908,4.508 V 2.118 H 0 V 1.21 H 0.908 L 1.029,0 h 0.968 v 1.21 h 1.331 v 0.908 z"
         transform="translate(90.8076,15.3419)"
         id="path49" />
      <path
         style="fill:#ffffff;fill-rule:nonzero;stroke:none"
         d="M 0.045,1.574 H 1.134 V 6.112 H 0.045 Z M 0,0 H 1.18 V 0.968 H 0 Z"
         transform="translate(95.1489,14.9788)"
         id="path50" />
      <path
         style="fill:#ffffff;fill-rule:nonzero;stroke:none"
         d="m 3.57,2.345 c 0,-0.892 -0.469,-1.437 -1.225,-1.437 -0.757,0 -1.226,0.545 -1.226,1.437 0,0.893 0.469,1.437 1.226,1.437 0.756,0 1.225,-0.544 1.225,-1.437 M 0,2.345 C 0,0.938 0.953,0 2.345,0 3.767,0 4.689,0.923 4.689,2.345 4.689,3.752 3.736,4.69 2.345,4.69 0.923,4.69 0,3.767 0,2.345"
         transform="translate(97.3565,16.4764)"
         id="path51" />
      <path
         style="fill:#ffffff;fill-rule:nonzero;stroke:none"
         d="M 4.22,1.74 V 4.614 H 3.131 V 1.997 C 3.131,1.301 2.798,0.908 2.238,0.908 1.603,0.908 1.089,1.362 1.089,2.012 V 4.614 H 0 V 0.076 h 0.968 l 0.06,0.666 C 1.361,0.288 1.921,0 2.571,0 3.539,0 4.22,0.696 4.22,1.74"
         transform="translate(103.029,16.4764)"
         id="path52" />
      <path
         style="fill:#ffffff;fill-rule:nonzero;stroke:none"
         d="M 3.388,1.845 C 3.388,1.27 3.01,0.983 2.299,0.983 H 1.164 v 1.709 h 1.135 c 0.711,0 1.089,-0.287 1.089,-0.847 m 1.18,-0.03 C 4.568,2.949 3.766,3.63 2.435,3.63 H 1.164 V 5.748 H 0 V 0 h 2.435 c 1.331,0 2.133,0.695 2.133,1.815"
         transform="translate(111.045,15.3427)"
         id="path53" />
      <path
         style="fill:#ffffff;fill-rule:nonzero;stroke:none"
         d="M 2.965,0.03 2.935,1.059 C 2.708,1.028 2.481,1.013 2.269,1.013 c -0.696,0 -1.18,0.379 -1.18,1.089 V 4.598 H 0 V 0.06 H 0.968 L 1.029,0.771 C 1.362,0.287 1.906,0 2.572,0 2.693,0 2.829,0.015 2.965,0.03"
         transform="translate(116.534,16.4921)"
         id="path54" />
      <path
         style="fill:#ffffff;fill-rule:nonzero;stroke:none"
         d="M 3.57,2.345 C 3.57,1.453 3.101,0.908 2.345,0.908 1.588,0.908 1.12,1.453 1.12,2.345 c 0,0.893 0.468,1.437 1.225,1.437 0.756,0 1.225,-0.544 1.225,-1.437 M 0,2.345 C 0,0.938 0.953,0 2.345,0 3.766,0 4.689,0.923 4.689,2.345 4.689,3.752 3.736,4.69 2.345,4.69 0.923,4.69 0,3.767 0,2.345"
         transform="translate(119.756,16.4764)"
         id="path55" />
      <path
         style="fill:#ffffff;fill-rule:nonzero;stroke:none"
         d="m 1.997,2.118 v 2.148 c 0,0.424 0.212,0.56 0.605,0.56 0.258,0 0.469,-0.015 0.726,-0.076 V 5.718 C 3.011,5.809 2.678,5.839 2.36,5.839 1.437,5.839 0.908,5.386 0.908,4.508 V 2.118 H 0 V 1.21 H 0.908 L 1.029,0 h 0.968 v 1.21 h 1.331 v 0.908 z"
         transform="translate(124.792,15.3419)"
         id="path56" />
      <path
         style="fill:#ffffff;fill-rule:nonzero;stroke:none"
         d="M 1.104,1.891 H 3.403 C 3.282,1.241 2.874,0.877 2.284,0.877 c -0.636,0 -1.059,0.379 -1.18,1.014 m 1.255,1.891 c 0.59,0 1.014,-0.227 1.286,-0.545 L 4.326,3.888 C 3.902,4.357 3.267,4.69 2.359,4.69 0.801,4.69 0,3.691 0,2.345 0,0.953 0.907,0 2.284,0 3.63,0 4.507,0.923 4.507,2.345 c 0,0.106 0,0.181 -0.03,0.348 H 1.089 c 0.105,0.68 0.559,1.089 1.27,1.089"
         transform="translate(128.604,16.4767)"
         id="path57" />
      <path
         style="fill:#ffffff;fill-rule:nonzero;stroke:none"
         d="M 0,2.345 C 0,0.938 0.938,0 2.315,0 3.328,0 4.13,0.5 4.372,1.362 L 3.343,1.679 C 3.177,1.195 2.814,0.908 2.299,0.908 c -0.726,0 -1.18,0.56 -1.18,1.437 0,0.877 0.454,1.437 1.18,1.437 0.515,0 0.893,-0.287 1.059,-0.771 L 4.372,3.328 C 4.13,4.191 3.328,4.69 2.315,4.69 0.938,4.69 0,3.752 0,2.345"
         transform="translate(133.761,16.4764)"
         id="path58" />
      <path
         style="fill:#ffffff;fill-rule:nonzero;stroke:none"
         d="m 1.997,2.118 v 2.148 c 0,0.424 0.212,0.56 0.605,0.56 0.258,0 0.469,-0.015 0.726,-0.076 V 5.718 C 3.011,5.809 2.678,5.839 2.36,5.839 1.437,5.839 0.908,5.386 0.908,4.508 V 2.118 H 0 V 1.21 H 0.908 L 1.029,0 h 0.968 v 1.21 h 1.331 v 0.908 z"
         transform="translate(138.51,15.3419)"
         id="path59" />
      <path
         style="fill:#ffffff;fill-rule:nonzero;stroke:none"
         d="M 0.046,1.574 H 1.135 V 6.112 H 0.046 Z M 0,0 H 1.18 V 0.968 H 0 Z"
         transform="translate(142.851,14.9788)"
         id="path60" />
      <path
         style="fill:#ffffff;fill-rule:nonzero;stroke:none"
         d="m 3.57,2.345 c 0,-0.892 -0.469,-1.437 -1.225,-1.437 -0.757,0 -1.226,0.545 -1.226,1.437 0,0.893 0.469,1.437 1.226,1.437 0.756,0 1.225,-0.544 1.225,-1.437 M 0,2.345 C 0,0.938 0.953,0 2.345,0 3.766,0 4.689,0.923 4.689,2.345 4.689,3.752 3.736,4.69 2.345,4.69 0.923,4.69 0,3.767 0,2.345"
         transform="translate(145.059,16.4764)"
         id="path61" />
      <path
         style="fill:#ffffff;fill-rule:nonzero;stroke:none"
         d="M 4.22,1.74 V 4.614 H 3.131 V 1.997 C 3.131,1.301 2.798,0.908 2.238,0.908 1.603,0.908 1.089,1.362 1.089,2.012 V 4.614 H 0 V 0.076 h 0.968 l 0.06,0.666 C 1.361,0.288 1.921,0 2.571,0 3.539,0 4.22,0.696 4.22,1.74"
         transform="translate(150.732,16.4764)"
         id="path62" />
      <path
         style="fill:#ffffff;fill-rule:nonzero;stroke:none"
         d="M 3.57,2.345 C 3.57,1.453 3.101,0.908 2.345,0.908 1.588,0.908 1.12,1.453 1.12,2.345 c 0,0.893 0.468,1.437 1.225,1.437 0.756,0 1.225,-0.544 1.225,-1.437 M 0,2.345 C 0,0.938 0.953,0 2.345,0 3.766,0 4.689,0.923 4.689,2.345 4.689,3.752 3.736,4.69 2.345,4.69 0.923,4.69 0,3.767 0,2.345"
         transform="translate(158.279,16.4764)"
         id="path63" />
      <path
         style="fill:#ffffff;fill-rule:nonzero;stroke:none"
         d="M 2.012,1.407 V 1.649 H 3.283 V 2.556 H 2.012 V 6.187 H 0.923 V 2.556 H 0 V 1.649 H 0.923 V 1.422 C 0.923,0.56 1.528,0 2.466,0 2.995,0 3.434,0.136 3.812,0.393 L 3.313,1.195 C 3.056,1.014 2.784,0.908 2.481,0.908 2.179,0.908 2.012,1.089 2.012,1.407"
         transform="translate(163.345,14.9034)"
         id="path64" />
      <path
         style="fill:#ffffff;fill-rule:nonzero;stroke:none"
         d="M 0,3.449 V 0 h 1.165 v 3.419 c 0,0.862 0.499,1.376 1.346,1.376 0.862,0 1.346,-0.514 1.346,-1.376 V 0 H 5.022 V 3.449 C 5.022,4.901 4.069,5.824 2.511,5.824 0.968,5.824 0,4.901 0,3.449"
         transform="translate(169.954,15.3421)"
         id="path65" />
      <path
         style="fill:#ffffff;fill-rule:nonzero;stroke:none"
         d="M 4.114,5.098 V 6.051 C 3.933,6.066 3.811,6.066 3.63,6.066 2.995,6.066 2.647,5.748 2.647,5.128 V 4.236 H 1.089 V 6.051 H 0 V 0 h 1.089 v 3.237 h 0.71 L 2.904,1.513 H 4.053 L 2.889,3.252 h 0.802 v 1.619 c 0,0.136 0.09,0.227 0.227,0.227 z"
         transform="translate(176.368,15.0395)"
         id="path66" />
      <path
         style="fill:#ffffff;fill-rule:nonzero;stroke:none"
         d="M 2.965,0.03 2.935,1.059 C 2.708,1.028 2.481,1.013 2.269,1.013 c -0.696,0 -1.18,0.379 -1.18,1.089 V 4.598 H 0 V 0.06 H 0.968 L 1.029,0.771 C 1.362,0.287 1.906,0 2.572,0 2.693,0 2.829,0.015 2.965,0.03"
         transform="translate(181.419,16.4921)"
         id="path67" />
      <path
         style="fill:#ffffff;fill-rule:nonzero;stroke:none"
         d="M 2.889,2.859 V 2.39 C 2.708,2.496 2.451,2.541 2.072,2.602 1.558,2.693 1.059,2.768 1.059,3.267 c 0,0.348 0.242,0.56 0.65,0.56 0.651,0 1.18,-0.438 1.18,-0.968 z M 4.387,3.676 V 4.614 C 4.311,4.629 4.19,4.644 3.993,4.644 3.433,4.644 3.146,4.432 3.071,3.948 2.738,4.402 2.148,4.689 1.482,4.689 0.605,4.689 0,4.16 0,3.358 0,2.209 1.089,1.982 1.951,1.876 2.541,1.8 2.919,1.724 2.919,1.422 c 0,-0.318 -0.333,-0.53 -0.877,-0.53 -0.484,0 -0.938,0.197 -1.286,0.56 L 0.106,0.771 C 0.635,0.272 1.301,0 2.103,0 c 1.149,0 1.83,0.575 1.83,1.513 v 1.891 c 0,0.181 0.091,0.272 0.272,0.272 z"
         transform="translate(184.656,16.4768)"
         id="path68" />
      <path
         style="fill:#ffffff;fill-rule:nonzero;stroke:none"
         d="M 0.045,1.574 H 1.134 V 6.112 H 0.045 Z M 0,0 H 1.18 V 0.968 H 0 Z"
         transform="translate(190.01,14.9788)"
         id="path69" />
      <path
         style="fill:#ffffff;fill-rule:nonzero;stroke:none"
         d="M 4.22,1.74 V 4.614 H 3.131 V 1.997 C 3.131,1.301 2.798,0.908 2.238,0.908 1.603,0.908 1.089,1.362 1.089,2.012 V 4.614 H 0 V 0.076 h 0.968 l 0.06,0.666 C 1.361,0.288 1.921,0 2.571,0 3.539,0 4.22,0.696 4.22,1.74"
         transform="translate(192.536,16.4764)"
         id="path70" />
      <path
         style="fill:#ffffff;fill-rule:nonzero;stroke:none"
         d="M 1.104,1.891 H 3.403 C 3.282,1.241 2.874,0.877 2.284,0.877 1.648,0.877 1.225,1.256 1.104,1.891 M 2.36,3.782 c 0.589,0 1.013,-0.227 1.285,-0.545 L 4.326,3.888 C 3.902,4.357 3.267,4.69 2.36,4.69 0.801,4.69 0,3.691 0,2.345 0,0.953 0.907,0 2.284,0 3.63,0 4.507,0.923 4.507,2.345 c 0,0.106 0,0.181 -0.03,0.348 H 1.089 c 0.105,0.68 0.559,1.089 1.271,1.089"
         transform="translate(197.663,16.4767)"
         id="path71" />
    </g>
  </g>
</svg>
